Coordinates
version=1
nRows=11
nColumns=46
inDegrees=yes

Units are S.I. units (second, meters, Newtons, ...)
Angles are in degrees.

endheader
time	pelvis_tilt	pelvis_list	pelvis_rotation	pelvis_tx	pelvis_ty	pelvis_tz	bb_angle	bb_tx	bb_ty	bb_tz	hip_flexion_r	hip_adduction_r	hip_rotation_r	knee_angle_r	knee_angle_r_beta	ankle_angle_r	subtalar_angle_r	mtp_angle_r	crank_angle_r	hip_flexion_l	hip_adduction_l	hip_rotation_l	knee_angle_l	knee_angle_l_beta	ankle_angle_l	subtalar_angle_l	mtp_angle_l	crank_angle_l	lumbar_extension	lumbar_bending	lumbar_rotation	arm_flex_r	arm_add_r	arm_rot_r	elbow_flex_r	pro_sup_r	wrist_flex_r	wrist_dev_r	arm_flex_l	arm_add_l	arm_rot_l	elbow_flex_l	pro_sup_l	wrist_flex_l	wrist_dev_l
      2.50500000	    -26.87344948	      9.03246055	     -2.65264724	      0.28762256	      1.06350145	     -0.23564061	      0.00000000	      0.50000000	      0.00000000	      0.25000000	     48.49232592	    -13.45466394	     -2.59521256	     29.83135006	      0.52065528	    -16.14556171	      4.74193692	      0.00000000	      0.00000000	     74.54500407	     -1.55178901	     -6.47420845	    109.35189636	      1.90855063	     -9.11868582	    -10.94438773	      0.00000000	      0.00000000	    -50.90016842	     -5.33766179	     -5.70342211	     57.83821343	    -15.88034226	     19.70608959	     85.67690704	     51.89623410	      0.00000000	      0.00000000	     54.28880183	    -17.42792799	     13.41479518	     83.74405047	     51.34532637	      0.00000000	      0.00000000
      2.51000000	    -26.80377046	      9.60460353	     -2.21703087	      0.28869980	      1.06199312	     -0.23523441	      0.00000000	      0.50000000	      0.00000000	      0.25000000	     47.66022667	    -14.29167894	     -2.80545705	     29.17660553	      0.50922783	    -16.96283715	      5.01815538	      0.00000000	      0.00000000	     75.50129682	     -1.46929691	     -6.84771828	    110.62193092	      1.93071692	     -7.58713815	     -9.87580106	      0.00000000	      0.00000000	    -50.70415969	     -5.84156353	     -6.10943115	     57.29241352	    -16.08346654	     19.28432013	     85.51498683	     51.83860897	      0.00000000	      0.00000000	     54.70536435	    -17.40029046	     14.33370941	     83.18342027	     51.33496159	      0.00000000	      0.00000000
      2.51500000	    -26.83312551	     10.03567877	     -1.83797135	      0.28973352	      1.06036093	     -0.23498321	      0.00000000	      0.50000000	      0.00000000	      0.25000000	     46.91158756	    -14.94732911	     -2.91899594	     28.58097700	      0.49883215	    -17.75695480	      5.25189149	      0.00000000	      0.00000000	     76.61685179	     -1.51226200	     -7.12642261	    111.88153917	      1.95270123	     -6.30713665	     -9.03476141	      0.00000000	      0.00000000	    -50.43501569	     -6.21677924	     -6.28442249	     56.59289182	    -16.43593216	     18.83921097	     85.50724632	     51.81465688	      0.00000000	      0.00000000	     55.17108431	    -17.40465102	     15.44930955	     82.52280421	     51.33130767	      0.00000000	      0.00000000
      2.52000000	    -26.93358663	     10.61199302	     -1.32523375	      0.29073524	      1.05942580	     -0.23476659	      0.00000000	      0.50000000	      0.00000000	      0.25000000	     46.12740779	    -15.80430612	     -3.14252292	     27.79698371	      0.48514889	    -18.58165205	      5.48507911	      0.00000000	      0.00000000	     77.69806084	     -1.34635157	     -7.60012978	    112.79196442	      1.96859115	     -5.48064111	     -8.69788847	      0.00000000	      0.00000000	    -50.19947755	     -6.64961159	     -6.87858128	     56.05948435	    -16.65632524	     18.76718106	     85.37519798	     51.78574323	      0.00000000	      0.00000000	     55.25106157	    -17.38388984	     15.70651722	     82.40823641	     51.32674887	      0.00000000	      0.00000000
      2.52500000	    -26.96549683	     11.05822659	     -0.83585152	      0.29148386	      1.05870413	     -0.23433557	      0.00000000	      0.50000000	      0.00000000	      0.25000000	     45.24599757	    -16.50456152	     -3.37668551	     27.09069676	      0.47282186	    -19.26285284	      5.56905308	      0.00000000	      0.00000000	     78.72803037	     -1.30898383	     -7.95850734	    113.68203208	      1.98412576	     -4.44172264	     -8.36757606	      0.00000000	      0.00000000	    -50.04538129	     -7.03970384	     -7.46536434	     55.64610194	    -16.85642572	     18.66593068	     85.23065833	     51.75039026	      0.00000000	      0.00000000	     55.44054010	    -17.38427260	     16.01698854	     82.30480407	     51.32859590	      0.00000000	      0.00000000
      2.53000000	    -27.08581831	     11.52257809	     -0.38947454	      0.29219641	      1.05835206	     -0.23397470	      0.00000000	      0.50000000	      0.00000000	      0.25000000	     44.37415015	    -17.16203497	     -3.52770700	     26.17800892	      0.45689245	    -20.26044872	      5.67068298	      0.00000000	      0.00000000	     79.76805300	     -1.28348106	     -8.37503457	    114.34441551	      1.99568653	     -3.52704887	     -7.62741636	      0.00000000	      0.00000000	    -49.89560598	     -7.40289488	     -7.96125060	     55.19034702	    -17.06030045	     18.54296129	     85.02365409	     51.70671815	      0.00000000	      0.00000000	     55.64491872	    -17.47937805	     16.54293012	     82.10841678	     51.33912397	      0.00000000	      0.00000000
      2.53500000	    -27.25654883	     11.90691763	      0.18441666	      0.29290771	      1.05839669	     -0.23362502	      0.00000000	      0.50000000	      0.00000000	      0.25000000	     43.47960825	    -17.82747938	     -3.94211869	     25.24331555	      0.44057897	    -21.32222807	      5.67231621	      0.00000000	      0.00000000	     80.79925760	     -1.10130200	     -8.65129385	    114.80589948	      2.00374095	     -2.80178825	     -7.04545401	      0.00000000	      0.00000000	    -49.75065354	     -7.71962633	     -8.52092734	     54.80883778	    -17.21276814	     18.39979089	     84.84194875	     51.66896517	      0.00000000	      0.00000000	     55.91702840	    -17.61706992	     17.22649404	     81.85834889	     51.35923482	      0.00000000	      0.00000000
      2.54000000	    -27.26933086	     12.20939265	      0.75028159	      0.29341604	      1.05922969	     -0.23295842	      0.00000000	      0.50000000	      0.00000000	      0.25000000	     42.37036970	    -18.36163934	     -4.30885589	     24.27242374	      0.42363371	    -22.43489361	      5.42216911	      0.00000000	      0.00000000	     81.60278524	     -0.96710688	     -8.90798572	    115.05915162	      2.00816103	     -2.01058335	     -6.50347218	      0.00000000	      0.00000000	    -49.82498197	     -7.97895553	     -8.83187535	     54.53889472	    -17.35689383	     17.92367410	     84.49344739	     51.62211627	      0.00000000	      0.00000000	     57.00896446	    -18.27187816	     19.48905598	     80.89686786	     51.43065406	      0.00000000	      0.00000000
      2.54500000	    -27.59939190	     12.53754434	      1.26143336	      0.29364881	      1.06006224	     -0.23286873	      0.00000000	      0.50000000	      0.00000000	      0.25000000	     41.65265721	    -18.89583875	     -4.60131605	     23.27435273	      0.40621409	    -23.63176093	      5.46257427	      0.00000000	      0.00000000	     82.69443609	     -0.74715487	     -9.26945034	    115.11671714	      2.00916574	     -1.50341662	     -6.56036213	      0.00000000	      0.00000000	    -49.67609795	     -8.19673504	     -9.37161403	     54.45133214	    -17.55655860	     17.86326594	     84.36479577	     51.60329613	      0.00000000	      0.00000000	     57.16698873	    -18.22025698	     19.60547829	     80.91506882	     51.44323522	      0.00000000	      0.00000000
      2.55000000	    -27.84009788	     12.79931527	      1.93607580	      0.29389212	      1.06179325	     -0.23280436	      0.00000000	      0.50000000	      0.00000000	      0.25000000	     40.74875886	    -19.49449295	     -5.21813341	     22.17687611	      0.38705951	    -25.35880137	      5.33720013	      0.00000000	      0.00000000	     83.58174807	     -0.33806953	     -9.54827620	    114.86834590	      2.00483084	     -1.17913391	     -6.61110278	      0.00000000	      0.00000000	    -49.69501920	     -8.26615850	    -10.02518738	     54.37994982	    -17.68157265	     17.83606851	     84.06826901	     51.56322779	      0.00000000	      0.00000000	     57.35982214	    -18.15504171	     19.83536827	     80.89712383	     51.46081450	      0.00000000	      0.00000000
      2.55500000	    -27.98607572	     12.98646423	      2.57069584	      0.29409638	      1.06431068	     -0.23303964	      0.00000000	      0.50000000	      0.00000000	      0.25000000	     39.62892598	    -19.97239728	     -5.84033485	     20.85814397	      0.36404329	    -27.34361863	      4.93960664	      0.00000000	      0.00000000	     84.24593579	      0.14539766	     -9.80068322	    114.43025421	      1.99718470	     -0.77246713	     -6.82831512	      0.00000000	      0.00000000	    -49.89965899	     -8.19866745	    -10.72621927	     54.75750065	    -17.62029148	     17.85033476	     83.56152071	     51.49341877	      0.00000000	      0.00000000	     57.68341545	    -18.20072450	     20.13414593	     80.80038591	     51.47038307	      0.00000000	      0.00000000
